# Blender v2.70 (sub 0) OBJ File: ''
# www.blender.org
o Cube_Cube.001
v -0.951647 -0.303191 2.803852
v -0.951647 -0.303191 -3.104650
v 1.048353 -0.303191 -3.104650
v 1.048353 -0.303191 2.803852
v -0.951647 1.696809 2.803852
v -0.951647 1.696809 -3.104650
v 1.048353 1.696809 -3.104650
v 1.048353 1.696809 2.803852
v -2.905899 -0.055718 -1.150399
v 3.002604 -0.055718 -1.150399
v 3.002604 -0.055718 0.849601
v -2.905899 -0.055718 0.849601
v -2.905899 0.600750 -1.150399
v 3.002604 0.600750 -1.150399
v 3.002604 0.600750 0.849601
v -2.905899 0.600750 0.849601
v -0.120059 -0.836245 -2.473480
v 0.216764 -0.836245 -2.473480
v 0.216764 -0.836245 -1.975871
v -0.120059 -0.836245 -1.975871
v -0.120059 -0.179777 -2.473480
v 0.216764 -0.179777 -2.473480
v 0.216764 -0.179777 -1.975871
v -0.120059 -0.179777 -1.975871
v -0.729287 -0.807234 1.776611
v -0.392464 -0.807234 1.776611
v -0.392464 -0.807234 2.274220
v -0.729287 -0.807234 2.274221
v -0.729287 -0.150766 1.776611
v -0.392464 -0.150766 1.776611
v -0.392464 -0.150766 2.274220
v -0.729287 -0.150766 2.274221
v 0.445653 -0.807234 1.776611
v 0.782476 -0.807234 1.776611
v 0.782476 -0.807234 2.274220
v 0.445653 -0.807234 2.274221
v 0.445653 -0.150766 1.776611
v 0.782476 -0.150766 1.776611
v 0.782476 -0.150766 2.274220
v 0.445653 -0.150766 2.274221
v -0.090943 1.182848 1.479371
v 0.221136 1.182848 1.479370
v 0.221136 1.182848 2.571461
v -0.090943 1.182848 2.571462
v -0.090943 2.623581 1.479371
v 0.221136 2.623581 1.479370
v 0.221136 2.623581 2.571461
v -0.090943 2.623581 2.571462
vt 0.734928 0.628397
vt 0.734928 0.477058
vt 0.287833 0.477058
vt 0.287833 0.628397
vt 0.587050 0.545459
vt 0.587050 0.495784
vt 0.435711 0.545459
vt 0.435711 0.495784
vt 0.687168 0.486396
vt 0.687168 0.436722
vt 0.649514 0.486396
vt 0.649514 0.436722
vt 0.365564 0.488592
vt 0.365564 0.438917
vt 0.327910 0.488592
vt 0.327910 0.438917
vt 0.388056 0.698526
vt 0.388056 0.589506
vt 0.305418 0.698526
vt 0.305418 0.589506
vn -1.000000 0.000000 0.000000
vn 0.000000 0.000000 -1.000000
vn 1.000000 -0.000000 0.000000
vn 0.000000 0.000000 1.000000
vn 0.000000 -1.000000 0.000000
vn 0.000000 1.000000 0.000000
vn -0.000001 0.000000 -1.000000
vn 0.000001 0.000000 1.000000
vn -0.000002 0.000000 -1.000000
vn 0.000002 0.000000 1.000000
s off
f 6/1/1 2/2/1 1/3/1
f 7/1/2 3/2/2 2/2/2
f 8/4/3 4/3/3 3/2/3
f 5/4/4 1/3/4 4/3/4
f 2/2/5 3/2/5 4/3/5
f 7/1/6 6/1/6 5/4/6
f 14/5/2 10/6/2 9/6/2
f 15/7/3 11/8/3 10/6/3
f 16/7/4 12/8/4 11/8/4
f 13/5/1 9/6/1 12/8/1
f 10/6/5 11/8/5 12/8/5
f 15/7/6 14/5/6 13/5/6
f 22/9/7 18/10/7 17/10/7
f 23/11/3 19/12/3 18/10/3
f 24/11/8 20/12/8 19/12/8
f 21/9/1 17/10/1 20/12/1
f 18/10/5 19/12/5 20/12/5
f 24/11/6 23/11/6 22/9/6
f 30/13/7 26/14/7 25/14/7
f 31/15/3 27/16/3 26/14/3
f 32/15/8 28/16/8 27/16/8
f 29/13/1 25/14/1 28/16/1
f 26/14/5 27/16/5 28/16/5
f 32/15/6 31/15/6 30/13/6
f 38/13/7 34/14/7 33/14/7
f 39/15/3 35/16/3 34/14/3
f 40/15/8 36/16/8 35/16/8
f 37/13/1 33/14/1 36/16/1
f 34/14/5 35/16/5 36/16/5
f 40/15/6 39/15/6 38/13/6
f 46/17/9 42/18/9 41/18/9
f 47/19/3 43/20/3 42/18/3
f 48/19/10 44/20/10 43/20/10
f 45/17/1 41/18/1 44/20/1
f 42/18/5 43/20/5 44/20/5
f 48/19/6 47/19/6 46/17/6
f 5/4/1 6/1/1 1/3/1
f 6/1/2 7/1/2 2/2/2
f 7/1/3 8/4/3 3/2/3
f 8/4/4 5/4/4 4/3/4
f 1/3/5 2/2/5 4/3/5
f 8/4/6 7/1/6 5/4/6
f 13/5/2 14/5/2 9/6/2
f 14/5/3 15/7/3 10/6/3
f 15/7/4 16/7/4 11/8/4
f 16/7/1 13/5/1 12/8/1
f 9/6/5 10/6/5 12/8/5
f 16/7/6 15/7/6 13/5/6
f 21/9/7 22/9/7 17/10/7
f 22/9/3 23/11/3 18/10/3
f 23/11/4 24/11/4 19/12/4
f 24/11/1 21/9/1 20/12/1
f 17/10/5 18/10/5 20/12/5
f 21/9/6 24/11/6 22/9/6
f 29/13/2 30/13/2 25/14/2
f 30/13/3 31/15/3 26/14/3
f 31/15/4 32/15/4 27/16/4
f 32/15/1 29/13/1 28/16/1
f 25/14/5 26/14/5 28/16/5
f 29/13/6 32/15/6 30/13/6
f 37/13/2 38/13/2 33/14/2
f 38/13/3 39/15/3 34/14/3
f 39/15/4 40/15/4 35/16/4
f 40/15/1 37/13/1 36/16/1
f 33/14/5 34/14/5 36/16/5
f 37/13/6 40/15/6 38/13/6
f 45/17/9 46/17/9 41/18/9
f 46/17/3 47/19/3 42/18/3
f 47/19/8 48/19/8 43/20/8
f 48/19/1 45/17/1 44/20/1
f 41/18/5 42/18/5 44/20/5
f 45/17/6 48/19/6 46/17/6
